<mxfile host="" modified="2021-01-17T19:06:52.173Z" agent="5.0 (X11; Linux x86_64) AppleWebKit/537.36 (KHTML, like Gecko) Chrome/84.0.4147.105 Safari/537.36" etag="Erpi1-Do--2P-X19dwJe" version="13.7.9" type="embed"><diagram id="bhVoWyLHRoKzk6UCo4CJ" name="Page-1"><mxGraphModel dx="1069" dy="404" grid="1" gridSize="10" guides="1" tooltips="1" connect="1" arrows="1" fold="1" page="1" pageScale="1" pageWidth="900" pageHeight="1600" math="0" shadow="0"><root><mxCell id="0"/><mxCell id="1" parent="0"/><mxCell id="vbk5mITB3XrVIvag_muD-6" value="" style="rounded=1;whiteSpace=wrap;html=1;strokeColor=#000000;fontColor=#62B3F5;gradientColor=#ffffff;gradientDirection=east;fillColor=#FFFFFF;" parent="1" vertex="1"><mxGeometry width="256" height="256" as="geometry"/></mxCell><mxCell id="4" value="" style="group" vertex="1" connectable="0" parent="1"><mxGeometry x="10" y="10" width="210" height="216" as="geometry"/></mxCell><mxCell id="QYjsSxTk9RFE-a9KcnIe-2" value="" style="rounded=1;whiteSpace=wrap;html=1;fontColor=#ffffff;strokeColor=#000000;container=0;fillColor=#0000ff;" parent="4" vertex="1"><mxGeometry x="43.451950647085845" y="157.93929094801783" width="56.10039557150793" height="40.28702260749785" as="geometry"/></mxCell><mxCell id="QYjsSxTk9RFE-a9KcnIe-3" value="" style="rounded=1;whiteSpace=wrap;html=1;fontColor=#ffffff;strokeColor=#000000;container=0;fillColor=#0000ff;" parent="4" vertex="1"><mxGeometry x="135.7838516918593" y="157.93929094801783" width="56.10039557150793" height="40.28702260749785" as="geometry"/></mxCell><mxCell id="QYjsSxTk9RFE-a9KcnIe-1" value="" style="rounded=0;whiteSpace=wrap;html=1;fontColor=#ffffff;strokeColor=#000000;container=0;fillColor=#0000ff;" parent="4" vertex="1"><mxGeometry x="25.336197910453077" y="178.08280225176674" width="184.66380208954692" height="37.91719774823328" as="geometry"/></mxCell><mxCell id="QYjsSxTk9RFE-a9KcnIe-6" value="" style="rounded=1;whiteSpace=wrap;html=1;fontColor=#ffffff;strokeColor=#000000;rotation=-12;container=0;fillColor=#2d8ee3;" parent="4" vertex="1"><mxGeometry x="34.686263839037736" y="101.0634943256679" width="56.10039557150793" height="40.28702260749785" as="geometry"/></mxCell><mxCell id="QYjsSxTk9RFE-a9KcnIe-7" value="" style="rounded=1;whiteSpace=wrap;html=1;fontColor=#ffffff;strokeColor=#000000;rotation=-12;container=0;fillColor=#2d8ee3;" parent="4" vertex="1"><mxGeometry x="124.68064840166502" y="82.10489545155126" width="56.10039557150793" height="40.28702260749785" as="geometry"/></mxCell><mxCell id="QYjsSxTk9RFE-a9KcnIe-8" value="" style="rounded=0;whiteSpace=wrap;html=1;fontColor=#ffffff;strokeColor=#000000;rotation=-12;container=0;fillColor=#2d8ee3;" parent="4" vertex="1"><mxGeometry x="19.492406705087664" y="111.7277061923585" width="184.66380208954692" height="37.91719774823328" as="geometry"/></mxCell><mxCell id="QYjsSxTk9RFE-a9KcnIe-18" value="" style="group" parent="4" vertex="1" connectable="0"><mxGeometry width="183.91083530323763" height="122.09441276447565" as="geometry"/></mxCell><mxCell id="QYjsSxTk9RFE-a9KcnIe-10" value="" style="rounded=1;whiteSpace=wrap;html=1;fontColor=#ffffff;strokeColor=#000000;rotation=-24;container=0;fillColor=#62b3f5;" parent="QYjsSxTk9RFE-a9KcnIe-18" vertex="1"><mxGeometry x="12.479857258649224" y="47.74243499221483" width="56.10039557150793" height="40.28702260749785" as="geometry"/></mxCell><mxCell id="QYjsSxTk9RFE-a9KcnIe-11" value="" style="rounded=1;whiteSpace=wrap;html=1;fontColor=#ffffff;strokeColor=#000000;rotation=-24;container=0;fillColor=#62b3f5;" parent="QYjsSxTk9RFE-a9KcnIe-18" vertex="1"><mxGeometry x="96.63045061591113" y="9.825237243981558" width="56.10039557150793" height="40.28702260749785" as="geometry"/></mxCell><mxCell id="QYjsSxTk9RFE-a9KcnIe-12" value="" style="rounded=0;whiteSpace=wrap;html=1;fontColor=#ffffff;strokeColor=#000000;rotation=-24;container=0;fillColor=#62b3f5;" parent="QYjsSxTk9RFE-a9KcnIe-18" vertex="1"><mxGeometry x="-0.37648339315467894" y="47.74243499221483" width="184.66380208954692" height="37.91719774823328" as="geometry"/></mxCell></root></mxGraphModel></diagram></mxfile>